<svg xmlns="http://www.w3.org/2000/svg" width="21.813" height="16.359"><path d="M1.818 0h18.177a1.885 1.885 0 011.818 1.818v12.724a1.885 1.885 0 01-1.818 1.818H1.818A1.885 1.885 0 010 14.542V1.818A1.885 1.885 0 011.818 0m10.906 2.727v.909h7.271v-.909h-7.271m0 1.818v.909h7.271v-.91h-7.271m0 1.818v.909h6.362v-.909h-6.362M7.271 9.916c-1.818 0-5.453.991-5.453 2.808v.909h10.906v-.909c0-1.818-3.635-2.808-5.453-2.808m0-7.189A2.727 2.727 0 1010 5.453a2.727 2.727 0 00-2.729-2.726z" fill="#4990e2"/></svg>