<svg xmlns="http://www.w3.org/2000/svg" width="139.547" height="110.26" viewBox="0 0 139.547 110.26">
  <g id="Grupo_4757" data-name="Grupo 4757" transform="translate(-0.1)">
    <path id="Caminho_1441" data-name="Caminho 1441" d="M47.529,6.113,38.675,1.054,37.832.843,36.989.632,36.146.422,35.092,0H31.93L30.876.211,29.822.422,28.768.632l-1.054.422-1.054.422L25.4,1.9l-1.265.632-1.054.632-1.265.632-1.054.843-1.265.843-1.054.843L17.385,7.378,16.12,8.432,15.066,9.486,14.012,10.54l-1.054,1.054-.843,1.265-1.054,1.054-.843,1.265L9.164,16.442l-.843,1.265-.843,1.476-.843,1.265-.843,1.476-.632,1.265-.632,1.476-.632,1.476L3.262,27.4,2.63,28.879l-.422,1.476L1.786,31.83l-.422,1.476L.943,34.781.732,36.257.522,37.732.311,39.208.1,40.683v5.481l.211,1.265v1.054l.211,1.054.422,1.054.422,1.054L1.786,52.7l.422.843.422.843.632.843.632.843.632.632.632.632.632.632,3.162,1.9,5.691,2.951,32.884-56.7Zm-2.74-.843Zm.843.211Zm.843.422Z" fill="#415a73" fill-rule="evenodd"/>
    <path id="Caminho_1442" data-name="Caminho 1442" d="M27.387,59.089c12.858-7.378,23.187-25.3,23.187-40.051S40.246-1.831,27.387,5.547,4.2,30.842,4.2,45.809C4.2,60.564,14.529,66.467,27.387,59.089Z" transform="translate(4.543 2.674)" fill="#2c3e50" fill-rule="evenodd"/>
    <path id="Caminho_1443" data-name="Caminho 1443" d="M37.887,8.84l-3.162-1.9-.632-.211-.632-.211-.632-.211L32.2,6.1H29.244l-.843.211-.843.211-.843.211-.632.632-.843.422-.843.422-.843.422-.843.422-.843.632-.843.632-.843.632-.843.632-.843.632-.843.843-.843.843-.843.843-.422.843-.632.843-.632.843-.843.843-.632.843-.632,1.054-.632,1.054-.632,1.054-.422,1.054-.422,1.054L9.64,25.282l-.422.843L8.8,27.179l-.422,1.054-.422,1.054-.211,1.054L7.532,31.4l-.211,1.054L7.111,33.5,6.9,34.557v5.9l.211.843.211.843.211.843.211.843.211.632.422.632.422.632.422.422.422.632.422.422.422.422.632.422,2.319,1.265.843.422c2.951,2.108,5.27,3.373,12.437-.843,7.167-4.005,16.653-20.658,16.653-28.879S41.26,10.527,37.887,8.84Zm-1.9-.422Zm.632,0Zm.632.211Z" transform="translate(7.534 6.758)" fill="#e6eaeb" fill-rule="evenodd"/>
    <path id="Caminho_1444" data-name="Caminho 1444" d="M25.055,47.865C34.33,42.6,41.708,29.526,41.708,18.986c0-10.751-7.378-14.966-16.653-9.7S8.4,27.629,8.4,38.169C8.191,48.919,15.78,53.346,25.055,47.865Z" transform="translate(9.194 7.785)" fill="#6a6c7d" fill-rule="evenodd"/>
    <path id="Caminho_1445" data-name="Caminho 1445" d="M46.378,93.712,32.044,82.329,13.705,47.548l-.422-.422-.632-.422-.422-.422-.422-.422-.422-.632-.422-.632-.422-.632-.211-.632-.211-.632-.211-.843L9.7,41.013V34.69l.211-1.054.211-1.054.211-1.054.211-1.054.211-1.054.422-1.054.422-1.054.422-1.054L12.44,25.2l.422-1.054.422-1.054.422-1.054.422-.843.632-.843.632-.843.632-.843.632-.843.632-.843.632-.843C29.3,2.86,54.6,7.286,69.144,11.924a8.277,8.277,0,0,1,5.27,4.637l3.373,7.378a8.308,8.308,0,0,1,.632,5.481l-2.74,12.858,15.388,35.2L74.836,86.545c.422,1.054-3.584,5.691-8.01,4.427-.632.843-.211,2.951-5.059,2.74.211.843-1.054,1.686-3.162,1.686l-10.329-.843A3.972,3.972,0,0,1,46.378,93.712Z" transform="translate(10.636 8.102)" fill="#e8d5a7" fill-rule="evenodd"/>
    <path id="Caminho_1446" data-name="Caminho 1446" d="M77.109,73.43l-9.275-7.167L60.878,55.3l-6.113-6.113a15.71,15.71,0,0,1-4.637-10.751l-.211-7.589-13.28-1.265-5.27,6.324c-1.476,1.686-3.584,2.74-5.691,1.9l-4.848-1.476a2.1,2.1,0,0,1-1.054-.843.993.993,0,0,1,.211-1.265L30.313,17.991a5.06,5.06,0,0,1,3.162-2.319L55.608,12.3a3,3,0,0,1,1.265.422l13.28,11.8c11.594,10.118,6.113,10.118,17.707,12.858,3.584.843,5.481,1.686,10.54,3.794C106.409,57.2,94.394,69,82.59,72.587,82.379,72.166,78.163,73.852,77.109,73.43Z" transform="translate(21.643 13.628)" fill="#c2ac78" fill-rule="evenodd"/>
    <path id="Caminho_1447" data-name="Caminho 1447" d="M48.921,55.518c-4.427-.211-8.853-1.265-12.648-4.427S24.891,40.341,25.734,39.708c.422-.422,7.8,7.589,11.383,10.54S45.338,54.464,48.921,55.518Z" transform="translate(28.329 43.977)" fill="#c2ac78" fill-rule="evenodd"/>
    <path id="Caminho_1448" data-name="Caminho 1448" d="M54.245,53.757c-4.005,0-8.221,0-12.015-3.162-3.794-3.373-14.545-12.858-14.123-13.28.632-.632,11.8,9.486,14.966,12.648C46.235,52.7,50.872,52.914,54.245,53.757Z" transform="translate(31.016 41.311)" fill="#c2ac78" fill-rule="evenodd"/>
    <path id="Caminho_1449" data-name="Caminho 1449" d="M60.165,51.9c-5.27-.632-11.383-1.476-15.6-5.059C40.35,43.049,31.286,35.25,31.707,34.617S42.036,42.628,45.831,46C49.414,49.373,55.738,50.427,60.165,51.9Z" transform="translate(35.004 38.318)" fill="#c2ac78" fill-rule="evenodd"/>
    <path id="Caminho_1450" data-name="Caminho 1450" d="M45.845,55.5c-4.216-.422-9.7-1.265-12.858-4.216s-9.7-8.643-9.064-9.064c.632-.632,7.167,6.324,10.118,8.432C36.992,52.972,42.683,54.869,45.845,55.5Z" transform="translate(26.347 46.734)" fill="#c2ac78" fill-rule="evenodd"/>
    <path id="Caminho_1451" data-name="Caminho 1451" d="M87.518,27.713l-8.853-5.059-.843-.422-.843-.211-.843-.211-.843-.211H72.13l-1.054.211-1.054.211-1.054.211-1.054.211-1.054.422-1.265.422-1.265.632-1.054.632-1.265.632-1.265.843-1.265.843-1.054.843-1.054,1.054L56.32,29.821l-1.054,1.054-1.054,1.054-1.054,1.054L52.1,34.248l-1.054,1.265-.843,1.054-.843,1.265-.843,1.476-.843,1.265-.843,1.265-.843,1.476-.632,1.476-.632,1.476-.843,1.265L43.251,49l-.632,1.476L42.2,51.954l-.422,1.265-.422,1.476-.211,1.476-.211,1.476-.211,1.476L40.511,60.6,40.3,62.073v5.481l.211,1.265.211,1.265.211,1.054.211,1.054.422,1.054.422,1.054.422.843.422.843.632.843.632.632.632.632.632.632.632.632,3.162,1.9,5.481,3.162,32.884-56.7Zm-2.53-.843Zm.843.211Zm.843.211Z" transform="translate(44.539 23.932)" fill="#415a73" fill-rule="evenodd"/>
    <path id="Caminho_1452" data-name="Caminho 1452" d="M67.487,80.589c12.858-7.378,23.187-25.3,23.187-40.051S80.346,19.669,67.487,27.047,44.3,52.342,44.3,67.309C44.3,82.064,54.84,87.967,67.487,80.589Z" transform="translate(48.971 26.495)" fill="#2c3e50" fill-rule="evenodd"/>
    <path id="Caminho_1453" data-name="Caminho 1453" d="M37.293,67.27l-6.745-.211A4.44,4.44,0,0,1,27.807,66l-1.054-1.054a4.483,4.483,0,0,1-1.476-3.162v-2.74l-.632-.211a3.564,3.564,0,0,1-2.108-1.476l-1.9-2.319a3.36,3.36,0,0,1-.843-2.53v-1.9l-.632-.211a4.241,4.241,0,0,1-2.319-1.9l-1.265-1.9A7.406,7.406,0,0,1,14.527,42.4v-.843A7.776,7.776,0,0,1,10.1,34.6V32.489l.211-4.427c.211-2.319,1.054-2.951,2.951-3.162a6.226,6.226,0,0,1,2.74.422l1.054.422a4.481,4.481,0,0,1,2.108,1.9,6.493,6.493,0,0,1,1.054,2.53v2.74l1.265.632,1.476,1.265A5.279,5.279,0,0,1,24.645,38.6v4.427a7.4,7.4,0,0,1,1.686,1.054l1.476,1.054a5.307,5.307,0,0,1,1.9,4.216L29.493,54.2c1.686,0,2.319.632,3.794,1.9a4,4,0,0,1,1.686,3.162l.632,4.005Z" transform="translate(11.079 27.588)" fill="#c2ac78" fill-rule="evenodd"/>
    <path id="Caminho_1454" data-name="Caminho 1454" d="M10.811,26.4l2.951,2.319-.422,5.059a.206.206,0,0,1-.211.211.453.453,0,0,1-.422-.422L11.443,32.3c-.422-.422-.843-.843-.843-1.265Z" transform="translate(11.633 29.25)" fill="#d4be8c" fill-rule="evenodd"/>
    <path id="Caminho_1455" data-name="Caminho 1455" d="M12.6,30.1l3.373,2.319v4.427a.206.206,0,0,1-.211.211l-.211.211H15.13a1.917,1.917,0,0,1-1.686-.843L13.232,36a1.914,1.914,0,0,1-.632-1.476Z" transform="translate(13.849 33.349)" fill="#d4be8c" fill-rule="evenodd"/>
    <path id="Caminho_1456" data-name="Caminho 1456" d="M15.3,34.6l3.373,2.53v4.005a.206.206,0,0,1-.211.211l-.211.211H17.83a1.917,1.917,0,0,1-1.686-.843l-.211-.422a1.914,1.914,0,0,1-.632-1.476Z" transform="translate(16.841 38.335)" fill="#d4be8c" fill-rule="evenodd"/>
    <path id="Caminho_1457" data-name="Caminho 1457" d="M17.9,39.8l3.373,2.53-.211,3.584a.453.453,0,0,1-.422.422h-.422a1.917,1.917,0,0,1-1.686-.843h0c-.422-.422-.422-1.686-.422-2.108Z" transform="translate(19.721 44.096)" fill="#d4be8c" fill-rule="evenodd"/>
    <path id="Caminho_1458" data-name="Caminho 1458" d="M18.2,28.906c-.632,0-1.265.211-1.686.211A5.738,5.738,0,0,0,13.136,30.8c-.632.843-.843,5.27-.843,6.535C12.082,31.646,11.028,28.695,18.2,28.906Z" transform="translate(13.313 32.014)" fill="#ab9667" fill-rule="evenodd"/>
    <path id="Caminho_1459" data-name="Caminho 1459" d="M24.148,19.543l2.74.211c.211,0,.422.211.632.422.843,1.265-4.216,6.324-5.059,7.378L19.3,26.921a20.516,20.516,0,0,1,4.427-6.956C23.727,19.543,23.937,19.333,24.148,19.543Z" transform="translate(21.273 21.561)" fill="#d4be8c" fill-rule="evenodd"/>
    <path id="Caminho_1460" data-name="Caminho 1460" d="M19.654,33.515c-1.476.211-3.584.632-4.216,2.108-.422.843-.632,4.637-.632,5.9C14.595,37.31,13.541,33.094,19.654,33.515Z" transform="translate(16.07 37.101)" fill="#ab9667" fill-rule="evenodd"/>
    <path id="Caminho_1461" data-name="Caminho 1461" d="M21.311,38.8c-3.794.211-3.794,1.9-4.005,5.059C17.306,40.065,16.884,38.8,21.311,38.8Z" transform="translate(19.051 42.988)" fill="#ab9667" fill-rule="evenodd"/>
    <path id="Caminho_1462" data-name="Caminho 1462" d="M27.211,19c.211.843,1.476,2.951-.211,4.848a4.466,4.466,0,0,1,3.584-1.476C28.686,21.74,28.054,20.054,27.211,19Z" transform="translate(29.804 21.051)" fill="#ab9667" fill-rule="evenodd"/>
    <path id="Caminho_1463" data-name="Caminho 1463" d="M38.27,20.3A9.748,9.748,0,0,1,33,21.776c2.74.211,1.9,1.265,2.108,2.951C35.319,21.986,36.794,21.565,38.27,20.3Z" transform="translate(36.451 22.491)" fill="#ab9667" fill-rule="evenodd"/>
  </g>
</svg>
