<svg id="Layer_1" data-name="Layer 1" xmlns="http://www.w3.org/2000/svg" viewBox="0 0 244.89 121.5">
  <title>Envelope_1</title>
  <g id="Group_5702" data-name="Group 5702">
    <rect id="Retângulo_4163" data-name="Retângulo 4163" x="91.38" width="142.03" height="38.84" rx="10" fill="#f8f8f8"/>
    <rect id="Retângulo_4164" data-name="Retângulo 4164" y="35.4" width="92.41" height="38.84" rx="10" fill="#f8f8f8"/>
    <rect id="Retângulo_4165" data-name="Retângulo 4165" x="80.67" y="70.69" width="164.22" height="38.84" rx="10" fill="#f8f8f8"/>
    <rect id="Retângulo_4166" data-name="Retângulo 4166" x="18.63" y="82.66" width="164.22" height="38.84" rx="10" fill="#f8f8f8"/>
    <rect id="Retângulo_4167" data-name="Retângulo 4167" x="70.04" y="19.57" width="107.57" height="82.38" rx="10" fill="#f3f3f3"/>
    <g id="Grupo_5696" data-name="Grupo 5696">
      <path id="Caminho_1696" data-name="Caminho 1696" d="M70.64,21.55c2.74.23,104.37-.69,106.89,0,.24,2.26-46.83,46.59-53,46.36C118.6,68.14,70.64,23.6,70.64,21.55Z" fill="#78b7ff"/>
      <g id="Grupo_5695" data-name="Grupo 5695">
        <g id="Grupo_5694" data-name="Grupo 5694">
          <path id="Caminho_1697" data-name="Caminho 1697" d="M160.21,83a1.79,1.79,0,0,1-1.27-.5l-21.32-20a1.85,1.85,0,0,1,2.54-2.7h0l21.32,20a1.85,1.85,0,0,1-1.27,3.2Z" fill="#6a6c7d"/>
          <path id="Caminho_1698" data-name="Caminho 1698" d="M89,83a1.85,1.85,0,0,1-1.27-3.2l21.33-20a1.85,1.85,0,1,1,2.58,2.66l0,0-21.33,20A1.82,1.82,0,0,1,89,83Z" fill="#6a6c7d"/>
        </g>
        <path id="Caminho_1699" data-name="Caminho 1699" d="M172.82,101.58H76.43a9.27,9.27,0,0,1-9.27-9.26V29.14a9.27,9.27,0,0,1,9.27-9.26h96.4a9.27,9.27,0,0,1,9.26,9.26V92.32A9.27,9.27,0,0,1,172.82,101.58Zm-96.4-78a5.56,5.56,0,0,0-5.56,5.56V92.32a5.57,5.57,0,0,0,5.56,5.56h96.4a5.57,5.57,0,0,0,5.56-5.56V29.14a5.58,5.58,0,0,0-5.56-5.56Z" fill="#6a6c7d"/>
        <path id="Caminho_1700" data-name="Caminho 1700" d="M124.62,70a10.34,10.34,0,0,1-6.8-2.45L70.24,26.08a1.85,1.85,0,0,1,2.43-2.8l47.58,41.51a7,7,0,0,0,8.74,0l47.52-41.44a1.86,1.86,0,0,1,2.44,2.8L131.43,67.58a10.33,10.33,0,0,1-6.8,2.46Z" fill="#6a6c7d"/>
      </g>
    </g>
    <g id="Grupo_5697" data-name="Grupo 5697">
      <line id="Linha_243" data-name="Linha 243" x1="192.01" y1="7.99" x2="192.01" y2="10.25" fill="none" stroke="#78b7ff" stroke-linecap="round"/>
      <line id="Linha_244" data-name="Linha 244" x1="195.95" y1="11.94" x2="193.7" y2="11.94" fill="none" stroke="#78b7ff" stroke-linecap="round"/>
      <line id="Linha_245" data-name="Linha 245" x1="192.01" y1="13.63" x2="192.01" y2="15.88" fill="none" stroke="#78b7ff" stroke-linecap="round"/>
      <line id="Linha_246" data-name="Linha 246" x1="190.32" y1="11.94" x2="188.07" y2="11.94" fill="none" stroke="#78b7ff" stroke-linecap="round"/>
    </g>
    <g id="Grupo_5698" data-name="Grupo 5698">
      <line id="Linha_247" data-name="Linha 247" x1="38.45" y1="54.26" x2="38.45" y2="58.21" fill="none" stroke="#fff" stroke-linecap="round"/>
      <line id="Linha_248" data-name="Linha 248" x1="45.36" y1="61.17" x2="41.41" y2="61.17" fill="none" stroke="#fff" stroke-linecap="round"/>
      <line id="Linha_249" data-name="Linha 249" x1="38.45" y1="64.13" x2="38.45" y2="68.08" fill="none" stroke="#fff" stroke-linecap="round"/>
      <line id="Linha_250" data-name="Linha 250" x1="35.49" y1="61.17" x2="31.54" y2="61.17" fill="none" stroke="#fff" stroke-linecap="round"/>
    </g>
    <g id="Grupo_5699" data-name="Grupo 5699">
      <line id="Linha_251" data-name="Linha 251" x1="57.7" y1="82.71" x2="57.7" y2="84.96" fill="none" stroke="#78b7ff" stroke-linecap="round"/>
      <line id="Linha_252" data-name="Linha 252" x1="61.65" y1="86.65" x2="59.39" y2="86.65" fill="none" stroke="#78b7ff" stroke-linecap="round"/>
      <line id="Linha_253" data-name="Linha 253" x1="57.7" y1="88.34" x2="57.7" y2="90.59" fill="none" stroke="#78b7ff" stroke-linecap="round"/>
      <line id="Linha_254" data-name="Linha 254" x1="56.01" y1="86.65" x2="53.76" y2="86.65" fill="none" stroke="#78b7ff" stroke-linecap="round"/>
    </g>
  </g>
</svg>
