<svg xmlns="http://www.w3.org/2000/svg" width="21.6" height="23.801" viewBox="0 0 21.6 23.801"><path class="a" d="M-5812.9,22660.8a2.049,2.049,0,0,1-2.1-2.1v-20.3a1.363,1.363,0,0,1,1.4-1.4h15a1.368,1.368,0,0,1,1.4,1.4v18.6a1.37,1.37,0,0,1-1.4,1.4h-15v.3a.687.687,0,0,0,.7.705h16.1a.687.687,0,0,0,.7-.705h.1v-2.895h1.4v2.895a2.049,2.049,0,0,1-2.1,2.1Zm9.1-11.1v1.1h2.7v-1.1c0-1.1-2.1-1.6-3.2-1.5h-.4A1.662,1.662,0,0,1-5803.8,22649.7Zm-7.1,0v1.1h6.2v-1.1c0-1.1-2.1-1.6-3.1-1.6S-5810.9,22648.7-5810.9,22649.7Zm5.3-3.8a1.319,1.319,0,0,0,1.3,1.3,1.324,1.324,0,0,0,1.3-1.3,1.329,1.329,0,0,0-1.3-1.3A1.324,1.324,0,0,0-5805.6,22645.9Zm-3.5,0a1.324,1.324,0,0,0,1.3,1.3,1.319,1.319,0,0,0,1.3-1.3,1.324,1.324,0,0,0-1.3-1.3A1.264,1.264,0,0,0-5809.1,22645.9Zm13,8.8v-4.1h1.9a.822.822,0,0,1,.8.9v2.4a.789.789,0,0,1-.8.8Zm0-5.6v-4.1h1.9a.789.789,0,0,1,.8.8v2.5a.792.792,0,0,1-.8.8Zm0-5.7v-4.1h1.9a.816.816,0,0,1,.8.895v2.4a.789.789,0,0,1-.8.8Z" transform="translate(5814.998 -22637)"/></svg>