<svg xmlns="http://www.w3.org/2000/svg" width="130" height="130" viewBox="0 0 130 130">
  <g id="Grupo_5230" data-name="Grupo 5230" transform="translate(-131.988 -117.988)">
    <circle id="Elipse_131" data-name="Elipse 131" cx="65" cy="65" r="65" transform="translate(131.988 117.988)" fill="#fff"/>
    <rect id="Ret창ngulo_3697" data-name="Ret창ngulo 3697" width="6.963" height="6.963" rx="1" transform="translate(208.593 188.791)" fill="#f9901c"/>
    <g id="Grupo_5131" data-name="Grupo 5131" transform="translate(151.771 133.532)">
      <path id="Ret창ngulo_3692" data-name="Ret창ngulo 3692" d="M4,0H76.543a4,4,0,0,1,4,4V22.609a0,0,0,0,1,0,0H0a0,0,0,0,1,0,0V4A4,4,0,0,1,4,0Z" transform="translate(0 5.782)" fill="#78b7ff"/>
      <g id="Calendar_x5F_Icon_1_" transform="translate(8.479)">
        <g id="Grupo_5093" data-name="Grupo 5093">
          <g id="Grupo_5085" data-name="Grupo 5085" transform="translate(20.614 8.433)">
            <path id="Caminho_1557" data-name="Caminho 1557" d="M14.293,7.586c-.625,0-.662-.5-.662-1.12s.037-1.066.662-1.066H51.929a1.093,1.093,0,0,1,0,2.186Z" transform="translate(-13.2 -5.4)" fill="#6a6c7d"/>
          </g>
          <g id="Grupo_5086" data-name="Grupo 5086" transform="translate(0 8.433)">
            <path id="Caminho_1558" data-name="Caminho 1558" d="M1.093,28.668c-.312,0-.468-.156-.781-.312A1.184,1.184,0,0,1,0,27.731V11.022A5.533,5.533,0,0,1,5.466,5.556h9.682c.625,0,.665.352.665.977s-.04,1.209-.665,1.209H5.466A3.466,3.466,0,0,0,2.03,11.178V26.794H79.019V11.022a3.466,3.466,0,0,0-3.436-3.436H65.9c-.625,0-.466-.312-.466-.937S65.276,5.4,65.9,5.4h9.682a5.533,5.533,0,0,1,5.466,5.466V27.419c0,.312-.156.468-.312.781a1.193,1.193,0,0,1-.781.312H1.093Z" transform="translate(0 -5.4)" fill="#6a6c7d"/>
          </g>
          <g id="Grupo_5089" data-name="Grupo 5089" transform="translate(11.712)">
            <g id="Grupo_5087" data-name="Grupo 5087" transform="translate(2.342)">
              <path id="Caminho_1559" data-name="Caminho 1559" d="M9,15.929V4.685A4.538,4.538,0,0,1,13.373,0a4.538,4.538,0,0,1,4.373,4.685V15.929a4.538,4.538,0,0,1-4.373,4.685A4.443,4.443,0,0,1,9,15.929ZM11.03,4.685V15.929a2.482,2.482,0,0,0,2.342,2.655,2.482,2.482,0,0,0,2.342-2.655V4.685A2.482,2.482,0,0,0,13.373,2.03,2.482,2.482,0,0,0,11.03,4.685Z" transform="translate(-9)" fill="#6a6c7d"/>
            </g>
            <g id="Grupo_5088" data-name="Grupo 5088" transform="translate(0 14.048)">
              <path id="Caminho_1560" data-name="Caminho 1560" d="M7.5,14.624a6.8,6.8,0,0,1,2.811-5.466,1.017,1.017,0,0,1,1.405.312,1.163,1.163,0,0,1-.156,1.405,4.685,4.685,0,1,0,5.622,0,.88.88,0,0,1-.156-1.405c0-.468.625-.625,1.093-.312a6.588,6.588,0,0,1,2.811,5.466,6.715,6.715,0,1,1-13.43,0Z" transform="translate(-7.5 -8.996)" fill="#6a6c7d"/>
            </g>
          </g>
          <g id="Grupo_5092" data-name="Grupo 5092" transform="translate(56.063)">
            <g id="Grupo_5090" data-name="Grupo 5090" transform="translate(2.342)">
              <path id="Caminho_1561" data-name="Caminho 1561" d="M37.4,15.929V4.685a4.383,4.383,0,1,1,8.745,0V15.929a4.538,4.538,0,0,1-4.373,4.685A4.443,4.443,0,0,1,37.4,15.929ZM39.43,4.685V15.929a2.482,2.482,0,0,0,2.342,2.655,2.588,2.588,0,0,0,2.342-2.655V4.685a2.361,2.361,0,1,0-4.685,0Z" transform="translate(-37.4)" fill="#6a6c7d"/>
            </g>
            <g id="Grupo_5091" data-name="Grupo 5091" transform="translate(0 14.041)">
              <path id="Caminho_1562" data-name="Caminho 1562" d="M35.9,14.627a6.8,6.8,0,0,1,2.811-5.466,1.163,1.163,0,0,1,1.405.156,1.163,1.163,0,0,1-.156,1.405,4.685,4.685,0,1,0,5.622,0,.88.88,0,0,1-.156-1.405c0-.312.625-.468,1.093-.156a6.588,6.588,0,0,1,2.811,5.466,6.715,6.715,0,0,1-13.43,0Z" transform="translate(-35.9 -8.991)" fill="#6a6c7d"/>
            </g>
          </g>
        </g>
        <g id="Grupo_5094" data-name="Grupo 5094" transform="translate(0 29.671)">
          <path id="Caminho_1563" data-name="Caminho 1563" d="M5.466,81.153A5.533,5.533,0,0,1,0,75.687V20.093c0-.312.156-.468.312-.781A1.193,1.193,0,0,1,1.093,19H80.112c.312,0,.468.156.781.312a1.193,1.193,0,0,1,.312.781V75.687a5.533,5.533,0,0,1-5.466,5.466ZM2.03,75.687a3.466,3.466,0,0,0,3.436,3.436H75.583a3.466,3.466,0,0,0,3.436-3.436v-54.5H2.03Z" transform="translate(0 -19)" fill="#6a6c7d"/>
        </g>
        <g id="Grupo_5126" data-name="Grupo 5126" transform="translate(8.12 37.635)">
          <g id="Grupo_5095" data-name="Grupo 5095" transform="translate(47.63)">
            <path id="Caminho_1564" data-name="Caminho 1564" d="M37.262,31.908A1.475,1.475,0,0,1,35.7,30.347V25.662A1.475,1.475,0,0,1,37.262,24.1h4.685a1.565,1.565,0,0,1,1.562,1.562v4.685a1.475,1.475,0,0,1-1.562,1.562Zm4.216-2.03V26.13H37.73v3.748Z" transform="translate(-35.7 -24.1)" fill="#6a6c7d"/>
          </g>
          <g id="Grupo_5096" data-name="Grupo 5096" transform="translate(57.156)">
            <path id="Caminho_1565" data-name="Caminho 1565" d="M43.362,31.908A1.475,1.475,0,0,1,41.8,30.347V25.662A1.475,1.475,0,0,1,43.362,24.1h4.685a1.475,1.475,0,0,1,1.562,1.562v4.685a1.475,1.475,0,0,1-1.562,1.562Zm4.216-2.03V26.13H43.83v3.748Z" transform="translate(-41.8 -24.1)" fill="#6a6c7d"/>
          </g>
          <g id="Grupo_5097" data-name="Grupo 5097" transform="translate(47.63 9.526)">
            <path id="Caminho_1566" data-name="Caminho 1566" d="M37.262,38.008A1.475,1.475,0,0,1,35.7,36.447V31.762A1.475,1.475,0,0,1,37.262,30.2h4.685a1.475,1.475,0,0,1,1.562,1.562v4.685a1.475,1.475,0,0,1-1.562,1.562Zm4.216-2.03V32.23H37.73v3.748Z" transform="translate(-35.7 -30.2)" fill="#6a6c7d"/>
          </g>
          <g id="Grupo_5098" data-name="Grupo 5098" transform="translate(57.156 9.526)">
            <path id="Caminho_1567" data-name="Caminho 1567" d="M43.362,38.008A1.475,1.475,0,0,1,41.8,36.447V31.762A1.475,1.475,0,0,1,43.362,30.2h4.685a1.475,1.475,0,0,1,1.562,1.562v4.685a1.565,1.565,0,0,1-1.562,1.562Zm4.216-2.03V32.23H43.83v3.748Z" transform="translate(-41.8 -30.2)" fill="#6a6c7d"/>
          </g>
          <g id="Grupo_5099" data-name="Grupo 5099" transform="translate(38.104 9.526)">
            <path id="Caminho_1568" data-name="Caminho 1568" d="M31.162,38.008A1.475,1.475,0,0,1,29.6,36.447V31.762A1.475,1.475,0,0,1,31.162,30.2h4.685a1.475,1.475,0,0,1,1.562,1.562v4.685a1.475,1.475,0,0,1-1.562,1.562Zm4.216-2.03V32.23H31.63v3.748Z" transform="translate(-29.6 -30.2)" fill="#6a6c7d"/>
          </g>
          <g id="Grupo_5100" data-name="Grupo 5100" transform="translate(28.578 9.526)">
            <path id="Caminho_1569" data-name="Caminho 1569" d="M25.062,38.008A1.475,1.475,0,0,1,23.5,36.447V31.762A1.475,1.475,0,0,1,25.062,30.2h4.685a1.475,1.475,0,0,1,1.562,1.562v4.685a1.475,1.475,0,0,1-1.562,1.562Zm4.216-2.03V32.23H25.53v3.748Z" transform="translate(-23.5 -30.2)" fill="#6a6c7d"/>
          </g>
          <g id="Grupo_5101" data-name="Grupo 5101" transform="translate(19.052 9.526)">
            <path id="Caminho_1570" data-name="Caminho 1570" d="M18.962,38.008A1.475,1.475,0,0,1,17.4,36.447V31.762A1.475,1.475,0,0,1,18.962,30.2h4.685a1.475,1.475,0,0,1,1.562,1.562v4.685a1.475,1.475,0,0,1-1.562,1.562Zm4.216-2.03V32.23H19.43v3.748Z" transform="translate(-17.4 -30.2)" fill="#6a6c7d"/>
          </g>
          <g id="Grupo_5102" data-name="Grupo 5102" transform="translate(9.526 9.526)">
            <path id="Caminho_1571" data-name="Caminho 1571" d="M12.862,38.008A1.475,1.475,0,0,1,11.3,36.447V31.762A1.475,1.475,0,0,1,12.862,30.2h4.685a1.475,1.475,0,0,1,1.562,1.562v4.685a1.475,1.475,0,0,1-1.562,1.562Zm4.216-2.03V32.23H13.33v3.748Z" transform="translate(-11.3 -30.2)" fill="#6a6c7d"/>
          </g>
          <g id="Grupo_5103" data-name="Grupo 5103" transform="translate(38.104)">
            <path id="Caminho_1572" data-name="Caminho 1572" d="M31.162,31.908A1.475,1.475,0,0,1,29.6,30.347V25.662A1.475,1.475,0,0,1,31.162,24.1h4.685a1.565,1.565,0,0,1,1.562,1.562v4.685a1.475,1.475,0,0,1-1.562,1.562Zm4.216-2.03V26.13H31.63v3.748Z" transform="translate(-29.6 -24.1)" fill="#6a6c7d"/>
          </g>
          <g id="Grupo_5104" data-name="Grupo 5104" transform="translate(28.578)">
            <path id="Caminho_1573" data-name="Caminho 1573" d="M25.062,31.908A1.475,1.475,0,0,1,23.5,30.347V25.662A1.475,1.475,0,0,1,25.062,24.1h4.685a1.565,1.565,0,0,1,1.562,1.562v4.685a1.475,1.475,0,0,1-1.562,1.562Zm4.216-2.03V26.13H25.53v3.748Z" transform="translate(-23.5 -24.1)" fill="#6a6c7d"/>
          </g>
          <g id="Grupo_5105" data-name="Grupo 5105" transform="translate(19.052)">
            <path id="Caminho_1574" data-name="Caminho 1574" d="M18.962,31.908A1.475,1.475,0,0,1,17.4,30.347V25.662A1.475,1.475,0,0,1,18.962,24.1h4.685a1.565,1.565,0,0,1,1.562,1.562v4.685a1.475,1.475,0,0,1-1.562,1.562Zm4.216-2.03V26.13H19.43v3.748Z" transform="translate(-17.4 -24.1)" fill="#6a6c7d"/>
          </g>
          <g id="Grupo_5106" data-name="Grupo 5106" transform="translate(9.526)">
            <path id="Caminho_1575" data-name="Caminho 1575" d="M12.862,31.908A1.475,1.475,0,0,1,11.3,30.347V25.662A1.475,1.475,0,0,1,12.862,24.1h4.685a1.565,1.565,0,0,1,1.562,1.562v4.685a1.475,1.475,0,0,1-1.562,1.562Zm4.216-2.03V26.13H13.33v3.748Z" transform="translate(-11.3 -24.1)" fill="#6a6c7d"/>
          </g>
          <g id="Grupo_5107" data-name="Grupo 5107" transform="translate(0 9.526)">
            <path id="Caminho_1576" data-name="Caminho 1576" d="M6.762,38.008A1.475,1.475,0,0,1,5.2,36.447V31.762A1.475,1.475,0,0,1,6.762,30.2h4.685a1.475,1.475,0,0,1,1.562,1.562v4.685a1.565,1.565,0,0,1-1.562,1.562Zm4.216-2.03V32.23H7.23v3.748Z" transform="translate(-5.2 -30.2)" fill="#6a6c7d"/>
          </g>
          <g id="Grupo_5108" data-name="Grupo 5108" transform="translate(38.104 19.208)">
            <path id="Caminho_1577" data-name="Caminho 1577" d="M31.162,44.208A1.475,1.475,0,0,1,29.6,42.647V37.962A1.565,1.565,0,0,1,31.162,36.4h4.685a1.475,1.475,0,0,1,1.562,1.562v4.685a1.475,1.475,0,0,1-1.562,1.562Zm4.216-2.03V38.43H31.63v3.748Z" transform="translate(-29.6 -36.4)" fill="#6a6c7d"/>
          </g>
          <g id="Grupo_5109" data-name="Grupo 5109" transform="translate(28.578 19.208)">
            <path id="Caminho_1578" data-name="Caminho 1578" d="M25.062,44.208A1.475,1.475,0,0,1,23.5,42.647V37.962A1.475,1.475,0,0,1,25.062,36.4h4.685a1.475,1.475,0,0,1,1.562,1.562v4.685a1.475,1.475,0,0,1-1.562,1.562Zm4.216-2.03V38.43H25.53v3.748Z" transform="translate(-23.5 -36.4)" fill="#6a6c7d"/>
          </g>
          <g id="Grupo_5110" data-name="Grupo 5110" transform="translate(19.052 19.208)">
            <path id="Caminho_1579" data-name="Caminho 1579" d="M18.962,44.208A1.475,1.475,0,0,1,17.4,42.647V37.962A1.475,1.475,0,0,1,18.962,36.4h4.685a1.475,1.475,0,0,1,1.562,1.562v4.685a1.475,1.475,0,0,1-1.562,1.562Zm4.216-2.03V38.43H19.43v3.748Z" transform="translate(-17.4 -36.4)" fill="#6a6c7d"/>
          </g>
          <g id="Grupo_5111" data-name="Grupo 5111" transform="translate(9.526 19.208)">
            <path id="Caminho_1580" data-name="Caminho 1580" d="M12.862,44.208A1.475,1.475,0,0,1,11.3,42.647V37.962A1.475,1.475,0,0,1,12.862,36.4h4.685a1.475,1.475,0,0,1,1.562,1.562v4.685a1.475,1.475,0,0,1-1.562,1.562Zm4.216-2.03V38.43H13.33v3.748Z" transform="translate(-11.3 -36.4)" fill="#6a6c7d"/>
          </g>
          <g id="Grupo_5112" data-name="Grupo 5112" transform="translate(0 19.208)">
            <path id="Caminho_1581" data-name="Caminho 1581" d="M6.762,44.208A1.475,1.475,0,0,1,5.2,42.647V37.962A1.475,1.475,0,0,1,6.762,36.4h4.685a1.565,1.565,0,0,1,1.562,1.562v4.685a1.565,1.565,0,0,1-1.562,1.562Zm4.216-2.03V38.43H7.23v3.748Z" transform="translate(-5.2 -36.4)" fill="#6a6c7d"/>
          </g>
          <g id="Grupo_5113" data-name="Grupo 5113" transform="translate(38.104 28.734)">
            <path id="Caminho_1582" data-name="Caminho 1582" d="M31.162,50.308A1.475,1.475,0,0,1,29.6,48.747V44.062A1.475,1.475,0,0,1,31.162,42.5h4.685a1.475,1.475,0,0,1,1.562,1.562v4.685a1.475,1.475,0,0,1-1.562,1.562Zm4.216-2.03V44.53H31.63v3.748Z" transform="translate(-29.6 -42.5)" fill="#6a6c7d"/>
          </g>
          <g id="Grupo_5114" data-name="Grupo 5114" transform="translate(28.578 28.734)">
            <path id="Caminho_1583" data-name="Caminho 1583" d="M25.062,50.308A1.475,1.475,0,0,1,23.5,48.747V44.062A1.475,1.475,0,0,1,25.062,42.5h4.685a1.475,1.475,0,0,1,1.562,1.562v4.685a1.475,1.475,0,0,1-1.562,1.562Zm4.216-2.03V44.53H25.53v3.748Z" transform="translate(-23.5 -42.5)" fill="#6a6c7d"/>
          </g>
          <g id="Grupo_5115" data-name="Grupo 5115" transform="translate(19.052 28.734)">
            <path id="Caminho_1584" data-name="Caminho 1584" d="M18.962,50.308A1.475,1.475,0,0,1,17.4,48.747V44.062A1.475,1.475,0,0,1,18.962,42.5h4.685a1.475,1.475,0,0,1,1.562,1.562v4.685a1.475,1.475,0,0,1-1.562,1.562Zm4.216-2.03V44.53H19.43v3.748Z" transform="translate(-17.4 -42.5)" fill="#6a6c7d"/>
          </g>
          <g id="Grupo_5116" data-name="Grupo 5116" transform="translate(9.526 28.734)">
            <path id="Caminho_1585" data-name="Caminho 1585" d="M12.862,50.308A1.475,1.475,0,0,1,11.3,48.747V44.062A1.475,1.475,0,0,1,12.862,42.5h4.685a1.475,1.475,0,0,1,1.562,1.562v4.685a1.475,1.475,0,0,1-1.562,1.562Zm4.216-2.03V44.53H13.33v3.748Z" transform="translate(-11.3 -42.5)" fill="#6a6c7d"/>
          </g>
          <g id="Grupo_5117" data-name="Grupo 5117" transform="translate(0 28.734)">
            <path id="Caminho_1586" data-name="Caminho 1586" d="M6.762,50.308A1.475,1.475,0,0,1,5.2,48.747V44.062A1.475,1.475,0,0,1,6.762,42.5h4.685a1.475,1.475,0,0,1,1.562,1.562v4.685a1.475,1.475,0,0,1-1.562,1.562Zm4.216-2.03V44.53H7.23v3.748Z" transform="translate(-5.2 -42.5)" fill="#6a6c7d"/>
          </g>
          <g id="Grupo_5118" data-name="Grupo 5118" transform="translate(28.578 38.416)">
            <path id="Caminho_1587" data-name="Caminho 1587" d="M25.062,56.508A1.475,1.475,0,0,1,23.5,54.947V50.262A1.475,1.475,0,0,1,25.062,48.7h4.685a1.475,1.475,0,0,1,1.562,1.562v4.685a1.475,1.475,0,0,1-1.562,1.562Zm4.216-2.03V50.73H25.53v3.748Z" transform="translate(-23.5 -48.7)" fill="#6a6c7d"/>
          </g>
          <g id="Grupo_5119" data-name="Grupo 5119" transform="translate(19.052 38.416)">
            <path id="Caminho_1588" data-name="Caminho 1588" d="M18.962,56.508A1.475,1.475,0,0,1,17.4,54.947V50.262A1.475,1.475,0,0,1,18.962,48.7h4.685a1.475,1.475,0,0,1,1.562,1.562v4.685a1.475,1.475,0,0,1-1.562,1.562Zm4.216-2.03V50.73H19.43v3.748Z" transform="translate(-17.4 -48.7)" fill="#6a6c7d"/>
          </g>
          <g id="Grupo_5120" data-name="Grupo 5120" transform="translate(9.526 38.416)">
            <path id="Caminho_1589" data-name="Caminho 1589" d="M12.862,56.508A1.475,1.475,0,0,1,11.3,54.947V50.262A1.475,1.475,0,0,1,12.862,48.7h4.685a1.475,1.475,0,0,1,1.562,1.562v4.685a1.475,1.475,0,0,1-1.562,1.562Zm4.216-2.03V50.73H13.33v3.748Z" transform="translate(-11.3 -48.7)" fill="#6a6c7d"/>
          </g>
          <g id="Grupo_5121" data-name="Grupo 5121" transform="translate(0 38.416)">
            <path id="Caminho_1590" data-name="Caminho 1590" d="M6.762,56.508A1.475,1.475,0,0,1,5.2,54.947V50.262A1.475,1.475,0,0,1,6.762,48.7h4.685a1.475,1.475,0,0,1,1.562,1.562v4.685a1.565,1.565,0,0,1-1.562,1.562Zm4.216-2.03V50.73H7.23v3.748Z" transform="translate(-5.2 -48.7)" fill="#6a6c7d"/>
          </g>
          <g id="Grupo_5122" data-name="Grupo 5122" transform="translate(47.63 19.208)">
            <path id="Caminho_1591" data-name="Caminho 1591" d="M37.262,44.208A1.475,1.475,0,0,1,35.7,42.647V37.962A1.475,1.475,0,0,1,37.262,36.4h4.685a1.475,1.475,0,0,1,1.562,1.562v4.685a1.475,1.475,0,0,1-1.562,1.562Zm4.216-2.03V38.43H37.73v3.748Z" transform="translate(-35.7 -36.4)" fill="#6a6c7d"/>
          </g>
          <g id="Grupo_5123" data-name="Grupo 5123" transform="translate(57.156 19.208)">
            <path id="Caminho_1592" data-name="Caminho 1592" d="M43.362,44.208A1.475,1.475,0,0,1,41.8,42.647V37.962A1.475,1.475,0,0,1,43.362,36.4h4.685a1.475,1.475,0,0,1,1.562,1.562v4.685a1.475,1.475,0,0,1-1.562,1.562Zm4.216-2.03V38.43H43.83v3.748Z" transform="translate(-41.8 -36.4)" fill="#6a6c7d"/>
          </g>
          <g id="Grupo_5124" data-name="Grupo 5124" transform="translate(47.63 28.734)">
            <path id="Caminho_1593" data-name="Caminho 1593" d="M37.262,50.308A1.475,1.475,0,0,1,35.7,48.747V44.062A1.475,1.475,0,0,1,37.262,42.5h4.685a1.475,1.475,0,0,1,1.562,1.562v4.685a1.475,1.475,0,0,1-1.562,1.562Zm4.216-2.03V44.53H37.73v3.748Z" transform="translate(-35.7 -42.5)" fill="#6a6c7d"/>
          </g>
          <g id="Grupo_5125" data-name="Grupo 5125" transform="translate(57.156 28.734)">
            <path id="Caminho_1594" data-name="Caminho 1594" d="M43.362,50.308A1.475,1.475,0,0,1,41.8,48.747V44.062A1.475,1.475,0,0,1,43.362,42.5h4.685a1.475,1.475,0,0,1,1.562,1.562v4.685a1.475,1.475,0,0,1-1.562,1.562Zm4.216-2.03V44.53H43.83v3.748Z" transform="translate(-41.8 -42.5)" fill="#6a6c7d"/>
          </g>
        </g>
      </g>
    </g>
  </g>
</svg>
