<svg id="Camada_1" data-name="Camada 1" xmlns="http://www.w3.org/2000/svg" viewBox="1 0 13 12.19" ><title>Loteamento</title><path fill="#BFBFBF" d="M14.88,11.84l-2.3-4.72A.26.26,0,0,0,12.37,7h-3s0,1,0,1h2.34a.3.3,0,0,1,.22.14l1.52,3.13H1.42L2.94,8.09A.27.27,0,0,1,3.16,8H5.49s.06-1,0-1h-3a.23.23,0,0,0-.21.13L0,11.84A.19.19,0,0,0,0,12a.22.22,0,0,0,.25.19H14.66a.22.22,0,0,0,.16,0A.22.22,0,0,0,14.88,11.84Z"/><path fill="#BFBFBF" d="M4.27,6H7V9h.8V6h2.77a.39.39,0,0,0,.4-.4v-4a.39.39,0,0,0-.4-.4H7.84V.4L7.44,0,7,.4v.79H4.27a.4.4,0,0,0-.4.4v4A.4.4,0,0,0,4.27,6Zm.79-3.57H9.82v.79H5.06ZM5.06,4H7.84v.79H5.06Z"/></svg>