<svg xmlns="http://www.w3.org/2000/svg" width="9.88" height="12.703" viewBox="0 0 9.88 12.703"><path class="a" d="M5,3V15.7H9.234v-2.47h1.411V15.7H14.88V3H5M6.411,4.412H7.823V5.823H6.411V4.412m2.823,0h1.411V5.823H9.234V4.412m2.823,0h1.411V5.823H12.057V4.412M6.411,7.235H7.823V8.646H6.411V7.235m2.823,0h1.411V8.646H9.234V7.235m2.823,0h1.411V8.646H12.057V7.235M6.411,10.058H7.823v1.412H6.411V10.058m2.823,0h1.411v1.412H9.234V10.058m2.823,0h1.411v1.412H12.057V10.058M6.411,12.881H7.823v1.412H6.411V12.881m5.646,0h1.411v1.412H12.057Z" transform="translate(-5 -3)"/></svg>