<svg xmlns="http://www.w3.org/2000/svg" width="19.604" height="24" viewBox="0 0 19.604 24"><path class="a" d="M-5688.8,22661a2.222,2.222,0,0,1-2.2-2.2v-17.4h1v16.4a2.221,2.221,0,0,0,2.2,2.2h12v1Zm2-2a2.222,2.222,0,0,1-2.2-2.2v-17.6a2.219,2.219,0,0,1,2.2-2.2h8.8l6.6,6.6v13.2a2.222,2.222,0,0,1-2.2,2.2Zm.1-3.3a2.714,2.714,0,0,0,1.4.7v.9h.8v-.9a1.314,1.314,0,0,0,1.3-.5,1.634,1.634,0,0,0,.5-1.4,1.918,1.918,0,0,0-.1-.8.545.545,0,0,0-.3-.5,2.107,2.107,0,0,0-.5-.4c-.3-.1-.6-.3-.9-.4a1.24,1.24,0,0,1-.8-.4c-.1,0-.205-.2-.205-.4s.1-.3.205-.5a.739.739,0,0,1,.5-.2c.2,0,.4,0,.5.2a2.331,2.331,0,0,1,.2.8h1.3a1.789,1.789,0,0,0-.4-1.4,2.089,2.089,0,0,0-1.3-.7v-1h-.8v1a1.3,1.3,0,0,0-1.3.5,1.84,1.84,0,0,0-.4,1.3,3.174,3.174,0,0,0,.1.9.661.661,0,0,0,.4.5c.2.1.495.3.7.4.3.1.6.2.9.3a1.615,1.615,0,0,1,.7.4.786.786,0,0,1,0,1.1,1.821,1.821,0,0,1-.7.2,1.116,1.116,0,0,1-.8-.3,2.956,2.956,0,0,1-.2-.9h-1.3A1.758,1.758,0,0,0-5686.7,22655.7Zm7.6-11h6l-6-6Z" transform="translate(5691.002 -22637.002)"/></svg>