<svg xmlns="http://www.w3.org/2000/svg" width="23.865" height="23.973" viewBox="0 0 23.865 23.973"><path class="a" d="M-5544.533,22662.158v-4.465h-3.788v4.465h-5.574v-23.973l14.941,2.895v21.078Zm-.444-6.467h3.009v-2.008h-3.009Zm-5.909,0h3.009v-2.008h-3.009Zm5.909-4.016h3.009v-2.008h-3.009Zm-5.909,0h3.009v-2.008h-3.009Zm5.909-3.9h3.009v-2.008h-3.009Zm-5.909,0h3.009v-2.008h-3.009Zm0-4.014h3.009v-2.008h-3.009Zm-11.932,18.4v-18.178l6.916-1.559v19.736Zm1.9-2.457h3.009v-2.008h-3.009Zm0-4.01h3.009v-2.008h-3.009Zm0-3.9h3.009v-2.008h-3.009Zm0-4.016h3.009v-2.008h-3.009Z" transform="translate(5562.818 -22638.186)"/></svg>