<?xml version="1.0" encoding="utf-8"?>
<!-- Generator: Adobe Illustrator 24.0.0, SVG Export Plug-In . SVG Version: 6.00 Build 0)  -->
<svg version="1.1" id="Camada_1" xmlns="http://www.w3.org/2000/svg" xmlns:xlink="http://www.w3.org/1999/xlink" x="0px" y="0px"
	 viewBox="0 0 28 28" style="enable-background:new 0 0 28 28;" xml:space="preserve">
<path id="qrcode-scan_1_" class="st0" d="M4.7,4.7h7v7h-7V4.7 M23.3,4.7v7h-7v-7H23.3 M16.3,17.5h2.3v-2.3h-2.3v-2.3h2.3v2.3H21
	v-2.3h2.3v2.3H21v2.3h2.3V21H21v2.3h-2.3V21h-3.5v2.3h-2.3v-4.7h3.5L16.3,17.5 M18.7,17.5V21H21v-3.5H18.7 M4.7,23.3v-7h7v7H4.7
	 M7,7v2.3h2.3V7H7 M18.7,7v2.3H21V7H18.7 M7,18.7V21h2.3v-2.3H7 M4.7,12.8H7v2.3H4.7V12.8 M10.5,12.8h4.7v4.7h-2.3v-2.3h-2.3V12.8
	 M12.8,7h2.3v4.7h-2.3V7 M2.3,2.3V7H0V2.3C0,1,1,0,2.3,0c0,0,0,0,0,0H7v2.3H2.3 M25.7,0C27,0,28,1,28,2.3l0,0V7h-2.3V2.3H21V0H25.7
	 M2.3,21v4.7H7V28H2.3C1,28,0,27,0,25.7c0,0,0,0,0,0V21H2.3 M25.7,25.7V21H28v4.7c0,1.3-1,2.3-2.3,2.3l0,0H21v-2.3H25.7z"/>
</svg>
