<svg xmlns="http://www.w3.org/2000/svg" width="91.126" height="23.701">&gt;<path class="a" d="M41.382 18.674a2.345 2.345 0 102.345 2.345 2.341 2.341 0 00-2.345-2.345zM14.751 4.689a2.345 2.345 0 10-2.345-2.345 2.341 2.341 0 002.345 2.345zM82.166 5.442a8.469 8.469 0 00-4.355 1.172V2.26A2.252 2.252 0 0075.55-.001a2.324 2.324 0 00-2.345 2.261v12.139a8.961 8.961 0 108.961-8.961zm3.182 12.057a4.3 4.3 0 01-6.2 0 4.45 4.45 0 010-6.2 4.3 4.3 0 016.2 0 4.449 4.449 0 010 6.2z"/><path class="a" d="M61.397 5.442h-1.675a.308.308 0 00-.251.084h-.084c-.084 0-.167.084-.251.084a9.107 9.107 0 00-4.355 2.68 8.951 8.951 0 00-13.4 0l-.084-.084-.251-.251-.083-.08-.084-.084a8.953 8.953 0 00-15.075 6.11v.251a4.16 4.16 0 01-1.256 3.266 4.3 4.3 0 01-6.2 0 4.25 4.25 0 01-1.256-3.015v-4.69a2.257 2.257 0 00-4.438-.586L9.14 16.246l-4.773-9.3a2.326 2.326 0 00-3.1-1 2.256 2.256 0 00-1 3.1l6.867 13.4a2.436 2.436 0 001.42 1.169 2.4 2.4 0 00.5.084h.419a2.038 2.038 0 001.591-1.256l1.868-3.794a8.713 8.713 0 01-.36-2.487v-1.675a8.961 8.961 0 0017.921-.084v-.5a4.227 4.227 0 011.256-2.68 4.372 4.372 0 016.2 0c.084.084.167.251.251.251a4.256 4.256 0 01.921 1.842 1.9 1.9 0 01.084.335 2.423 2.423 0 002.345 2.094 2.3 2.3 0 002.345-2.094 4.542 4.542 0 011.256-2.429 4.3 4.3 0 016.2 0 4.868 4.868 0 011.253 2.846v.586a8.964 8.964 0 005.695 8.04c.084.084.251.084.335.167h.084c.084 0 .251.084.335.084h.084c.084 0 .251.084.335.084h.084c.084 0 .167.084.251.084h.167a.308.308 0 01.251.084h1.34a8.879 8.879 0 10-.167-17.754zm3.182 12.059a4.45 4.45 0 01-6.2 0 3.989 3.989 0 01-1.256-3.182 4.25 4.25 0 011.256-3.015l.335-.335a4.776 4.776 0 011.842-.921h.921a4.355 4.355 0 013.1 7.453z"/></svg>